solid OpenSCAD_Model
  facet normal -0 0 1
    outer loop
      vertex 15 -5 3
      vertex 35 -8 3
      vertex 50 -5 3
    endloop
  endfacet
  facet normal 0 0 1
    outer loop
      vertex 15 -5 3
      vertex 10 -8 3
      vertex 35 -8 3
    endloop
  endfacet
  facet normal 0 0 1
    outer loop
      vertex 10 -8 3
      vertex 15 -5 3
      vertex 10 8 3
    endloop
  endfacet
  facet normal 0 0 1
    outer loop
      vertex 53 10 3
      vertex 50 5 3
      vertex 53 -10 3
    endloop
  endfacet
  facet normal -0 0 1
    outer loop
      vertex 35 10 3
      vertex 50 5 3
      vertex 53 10 3
    endloop
  endfacet
  facet normal -0 0 1
    outer loop
      vertex 35 8 3
      vertex 50 5 3
      vertex 35 10 3
    endloop
  endfacet
  facet normal 0 0 1
    outer loop
      vertex 35 8 3
      vertex 15 5 3
      vertex 50 5 3
    endloop
  endfacet
  facet normal 0 0 1
    outer loop
      vertex 15 5 3
      vertex 10 8 3
      vertex 15 -5 3
    endloop
  endfacet
  facet normal -0 0 1
    outer loop
      vertex 10 8 3
      vertex 15 5 3
      vertex 35 8 3
    endloop
  endfacet
  facet normal -0 0 1
    outer loop
      vertex 50 -5 3
      vertex 53 -10 3
      vertex 50 5 3
    endloop
  endfacet
  facet normal 0 0 1
    outer loop
      vertex 35 -10 3
      vertex 50 -5 3
      vertex 35 -8 3
    endloop
  endfacet
  facet normal 0 0 1
    outer loop
      vertex 50 -5 3
      vertex 35 -10 3
      vertex 53 -10 3
    endloop
  endfacet
  facet normal 1 -0 0
    outer loop
      vertex 55 -10 7
      vertex 55 10 1
      vertex 55 10 7
    endloop
  endfacet
  facet normal 1 0 0
    outer loop
      vertex 55 10 1
      vertex 55 -10 7
      vertex 55 -10 1
    endloop
  endfacet
  facet normal 0 1 0
    outer loop
      vertex 55 10 7
      vertex 53 10 5
      vertex 52 10 7
    endloop
  endfacet
  facet normal 0 1 0
    outer loop
      vertex 55 10 7
      vertex 53 10 3
      vertex 53 10 5
    endloop
  endfacet
  facet normal 0 1 0
    outer loop
      vertex 55 10 1
      vertex 35 10 3
      vertex 53 10 3
    endloop
  endfacet
  facet normal 0 1 0
    outer loop
      vertex 9.5 10 1.28843
      vertex 55 10 1
      vertex -9.5 10 1.28843
    endloop
  endfacet
  facet normal 0 1 0
    outer loop
      vertex 35 10 3
      vertex 55 10 1
      vertex 9.5 10 1.28843
    endloop
  endfacet
  facet normal 0 1 -0
    outer loop
      vertex 55 10 1
      vertex 53 10 3
      vertex 55 10 7
    endloop
  endfacet
  facet normal 0 1 0
    outer loop
      vertex 52 10 7
      vertex 53 10 5
      vertex 52 10 5
    endloop
  endfacet
  facet normal 0 1 0
    outer loop
      vertex -8 10 13.5
      vertex -10 10 11.5
      vertex -11 10 13.5
    endloop
  endfacet
  facet normal 0 1 -0
    outer loop
      vertex -8 10 6.20599
      vertex -10 10 11.5
      vertex -8 10 13.5
    endloop
  endfacet
  facet normal 0 1 -0
    outer loop
      vertex -9.5 10 6.20599
      vertex -10 10 11.5
      vertex -8 10 6.20599
    endloop
  endfacet
  facet normal 0 1 0
    outer loop
      vertex -9.5 10 6.20599
      vertex -10 10 5
      vertex -10 10 11.5
    endloop
  endfacet
  facet normal 0 1 0
    outer loop
      vertex -10 10 5
      vertex -35 10 3
      vertex -35 10 5
    endloop
  endfacet
  facet normal 0 1 0
    outer loop
      vertex -55 10 1
      vertex -35 10 3
      vertex -9.5 10 1.28843
    endloop
  endfacet
  facet normal 0 1 0
    outer loop
      vertex -10 10 5
      vertex -9.5 10 1.28843
      vertex -35 10 3
    endloop
  endfacet
  facet normal 0 1 -0
    outer loop
      vertex -9.5 10 1.28843
      vertex -10 10 5
      vertex -9.5 10 6.20599
    endloop
  endfacet
  facet normal 0 1 0
    outer loop
      vertex -11 10 13.5
      vertex -10 10 11.5
      vertex -11 10 11.5
    endloop
  endfacet
  facet normal 0 1 0
    outer loop
      vertex 35 10 5
      vertex 35 10 3
      vertex 10 10 5
    endloop
  endfacet
  facet normal 0 1 -0
    outer loop
      vertex 10 10 5
      vertex 9.5 10 6.20599
      vertex 10 10 11.5
    endloop
  endfacet
  facet normal 0 1 0
    outer loop
      vertex 10 10 5
      vertex 9.5 10 1.28843
      vertex 9.5 10 6.20599
    endloop
  endfacet
  facet normal 0 1 0
    outer loop
      vertex 9.5 10 1.28843
      vertex 10 10 5
      vertex 35 10 3
    endloop
  endfacet
  facet normal 0 1 0
    outer loop
      vertex 10 10 11.5
      vertex 11 10 13.5
      vertex 11 10 11.5
    endloop
  endfacet
  facet normal 0 1 0
    outer loop
      vertex 11 10 13.5
      vertex 10 10 11.5
      vertex 8 10 13.5
    endloop
  endfacet
  facet normal 0 1 0
    outer loop
      vertex 8 10 6.20599
      vertex 10 10 11.5
      vertex 9.5 10 6.20599
    endloop
  endfacet
  facet normal 0 1 0
    outer loop
      vertex 10 10 11.5
      vertex 8 10 6.20599
      vertex 8 10 13.5
    endloop
  endfacet
  facet normal 0 1 0
    outer loop
      vertex -53 10 5
      vertex -52 10 7
      vertex -52 10 5
    endloop
  endfacet
  facet normal 0 1 0
    outer loop
      vertex -52 10 7
      vertex -53 10 5
      vertex -55 10 7
    endloop
  endfacet
  facet normal 0 1 -0
    outer loop
      vertex -53 10 3
      vertex -55 10 7
      vertex -53 10 5
    endloop
  endfacet
  facet normal 0 1 0
    outer loop
      vertex -53 10 3
      vertex -55 10 1
      vertex -55 10 7
    endloop
  endfacet
  facet normal 0 1 0
    outer loop
      vertex -35 10 3
      vertex -55 10 1
      vertex -53 10 3
    endloop
  endfacet
  facet normal 0 1 0
    outer loop
      vertex -55 10 1
      vertex -9.5 10 1.28843
      vertex 55 10 1
    endloop
  endfacet
  facet normal 0 0 -1
    outer loop
      vertex 55 -10 1
      vertex 50 -5 1
      vertex 55 10 1
    endloop
  endfacet
  facet normal 0 0 -1
    outer loop
      vertex 55 -10 1
      vertex 15 -5 1
      vertex 50 -5 1
    endloop
  endfacet
  facet normal 0 0 -1
    outer loop
      vertex 15 -5 1
      vertex 2 0 1
      vertex 15 5 1
    endloop
  endfacet
  facet normal 0 0 -1
    outer loop
      vertex 15 -5 1
      vertex 1.61803 -1.17557 1
      vertex 2 0 1
    endloop
  endfacet
  facet normal 0 0 -1
    outer loop
      vertex 15 -5 1
      vertex 0.618033 -1.90211 1
      vertex 1.61803 -1.17557 1
    endloop
  endfacet
  facet normal 0 0 -1
    outer loop
      vertex 15 -5 1
      vertex -0.618033 -1.90211 1
      vertex 0.618033 -1.90211 1
    endloop
  endfacet
  facet normal -0 0 -1
    outer loop
      vertex -1.61803 -1.17557 1
      vertex -15 -5 1
      vertex -2 0 1
    endloop
  endfacet
  facet normal -0 0 -1
    outer loop
      vertex -0.618033 -1.90211 1
      vertex -15 -5 1
      vertex -1.61803 -1.17557 1
    endloop
  endfacet
  facet normal 0 0 -1
    outer loop
      vertex 15 -5 1
      vertex -15 -5 1
      vertex -0.618033 -1.90211 1
    endloop
  endfacet
  facet normal 0 0 -1
    outer loop
      vertex 55 -10 1
      vertex -15 -5 1
      vertex 15 -5 1
    endloop
  endfacet
  facet normal 0 0 -1
    outer loop
      vertex -55 -10 1
      vertex -15 -5 1
      vertex 55 -10 1
    endloop
  endfacet
  facet normal -0 0 -1
    outer loop
      vertex -50 -5 1
      vertex -55 -10 1
      vertex -50 5 1
    endloop
  endfacet
  facet normal -0 0 -1
    outer loop
      vertex -15 -5 1
      vertex -55 -10 1
      vertex -50 -5 1
    endloop
  endfacet
  facet normal 0 0 -1
    outer loop
      vertex 50 5 1
      vertex 55 10 1
      vertex 50 -5 1
    endloop
  endfacet
  facet normal 0 0 -1
    outer loop
      vertex 15 5 1
      vertex 55 10 1
      vertex 50 5 1
    endloop
  endfacet
  facet normal 0 0 -1
    outer loop
      vertex 1.61803 1.17557 1
      vertex 15 5 1
      vertex 2 0 1
    endloop
  endfacet
  facet normal 0 0 -1
    outer loop
      vertex 0.618033 1.90211 1
      vertex 15 5 1
      vertex 1.61803 1.17557 1
    endloop
  endfacet
  facet normal 0 0 -1
    outer loop
      vertex -0.618033 1.90211 1
      vertex 15 5 1
      vertex 0.618033 1.90211 1
    endloop
  endfacet
  facet normal 0 0 -1
    outer loop
      vertex -15 5 1
      vertex -2 0 1
      vertex -15 -5 1
    endloop
  endfacet
  facet normal 0 0 -1
    outer loop
      vertex -2 0 1
      vertex -15 5 1
      vertex -1.61803 1.17557 1
    endloop
  endfacet
  facet normal 0 0 -1
    outer loop
      vertex -1.61803 1.17557 1
      vertex -15 5 1
      vertex -0.618033 1.90211 1
    endloop
  endfacet
  facet normal 0 0 -1
    outer loop
      vertex -15 5 1
      vertex 15 5 1
      vertex -0.618033 1.90211 1
    endloop
  endfacet
  facet normal 0 0 -1
    outer loop
      vertex -15 5 1
      vertex 55 10 1
      vertex 15 5 1
    endloop
  endfacet
  facet normal 0 0 -1
    outer loop
      vertex -55 10 1
      vertex -15 5 1
      vertex -50 5 1
    endloop
  endfacet
  facet normal 0 0 -1
    outer loop
      vertex -15 5 1
      vertex -55 10 1
      vertex 55 10 1
    endloop
  endfacet
  facet normal 0 0 -1
    outer loop
      vertex -55 10 1
      vertex -50 5 1
      vertex -55 -10 1
    endloop
  endfacet
  facet normal 0 -1 0
    outer loop
      vertex -55 -10 7
      vertex -53 -10 5
      vertex -52 -10 7
    endloop
  endfacet
  facet normal 0 -1 0
    outer loop
      vertex -55 -10 7
      vertex -53 -10 3
      vertex -53 -10 5
    endloop
  endfacet
  facet normal 0 -1 0
    outer loop
      vertex -55 -10 1
      vertex -35 -10 3
      vertex -53 -10 3
    endloop
  endfacet
  facet normal 0 -1 -0
    outer loop
      vertex -9.5 -10 1.28843
      vertex -55 -10 1
      vertex 9.5 -10 1.28843
    endloop
  endfacet
  facet normal 0 -1 -0
    outer loop
      vertex -35 -10 3
      vertex -55 -10 1
      vertex -9.5 -10 1.28843
    endloop
  endfacet
  facet normal 0 -1 0
    outer loop
      vertex -55 -10 1
      vertex -53 -10 3
      vertex -55 -10 7
    endloop
  endfacet
  facet normal 0 -1 -0
    outer loop
      vertex -52 -10 7
      vertex -53 -10 5
      vertex -52 -10 5
    endloop
  endfacet
  facet normal 0 -1 0
    outer loop
      vertex 8 -10 13.5
      vertex 10 -10 11.5
      vertex 11 -10 13.5
    endloop
  endfacet
  facet normal 0 -1 0
    outer loop
      vertex 8 -10 6.20599
      vertex 10 -10 11.5
      vertex 8 -10 13.5
    endloop
  endfacet
  facet normal 0 -1 0
    outer loop
      vertex 9.5 -10 6.20599
      vertex 10 -10 11.5
      vertex 8 -10 6.20599
    endloop
  endfacet
  facet normal 0 -1 0
    outer loop
      vertex 9.5 -10 6.20599
      vertex 10 -10 5
      vertex 10 -10 11.5
    endloop
  endfacet
  facet normal 0 -1 0
    outer loop
      vertex 10 -10 5
      vertex 35 -10 3
      vertex 35 -10 5
    endloop
  endfacet
  facet normal 0 -1 0
    outer loop
      vertex 55 -10 1
      vertex 35 -10 3
      vertex 9.5 -10 1.28843
    endloop
  endfacet
  facet normal 0 -1 -0
    outer loop
      vertex 10 -10 5
      vertex 9.5 -10 1.28843
      vertex 35 -10 3
    endloop
  endfacet
  facet normal 0 -1 0
    outer loop
      vertex 9.5 -10 1.28843
      vertex 10 -10 5
      vertex 9.5 -10 6.20599
    endloop
  endfacet
  facet normal 0 -1 -0
    outer loop
      vertex 11 -10 13.5
      vertex 10 -10 11.5
      vertex 11 -10 11.5
    endloop
  endfacet
  facet normal 0 -1 0
    outer loop
      vertex -35 -10 5
      vertex -35 -10 3
      vertex -10 -10 5
    endloop
  endfacet
  facet normal 0 -1 0
    outer loop
      vertex -10 -10 5
      vertex -9.5 -10 6.20599
      vertex -10 -10 11.5
    endloop
  endfacet
  facet normal 0 -1 0
    outer loop
      vertex -10 -10 5
      vertex -9.5 -10 1.28843
      vertex -9.5 -10 6.20599
    endloop
  endfacet
  facet normal 0 -1 0
    outer loop
      vertex -9.5 -10 1.28843
      vertex -10 -10 5
      vertex -35 -10 3
    endloop
  endfacet
  facet normal 0 -1 0
    outer loop
      vertex -10 -10 11.5
      vertex -11 -10 13.5
      vertex -11 -10 11.5
    endloop
  endfacet
  facet normal 0 -1 0
    outer loop
      vertex -11 -10 13.5
      vertex -10 -10 11.5
      vertex -8 -10 13.5
    endloop
  endfacet
  facet normal 0 -1 0
    outer loop
      vertex -8 -10 6.20599
      vertex -10 -10 11.5
      vertex -9.5 -10 6.20599
    endloop
  endfacet
  facet normal 0 -1 0
    outer loop
      vertex -10 -10 11.5
      vertex -8 -10 6.20599
      vertex -8 -10 13.5
    endloop
  endfacet
  facet normal 0 -1 0
    outer loop
      vertex 53 -10 5
      vertex 52 -10 7
      vertex 52 -10 5
    endloop
  endfacet
  facet normal 0 -1 0
    outer loop
      vertex 52 -10 7
      vertex 53 -10 5
      vertex 55 -10 7
    endloop
  endfacet
  facet normal 0 -1 0
    outer loop
      vertex 53 -10 3
      vertex 55 -10 7
      vertex 53 -10 5
    endloop
  endfacet
  facet normal 0 -1 0
    outer loop
      vertex 53 -10 3
      vertex 55 -10 1
      vertex 55 -10 7
    endloop
  endfacet
  facet normal 0 -1 0
    outer loop
      vertex 35 -10 3
      vertex 55 -10 1
      vertex 53 -10 3
    endloop
  endfacet
  facet normal 0 -1 0
    outer loop
      vertex 55 -10 1
      vertex 9.5 -10 1.28843
      vertex -55 -10 1
    endloop
  endfacet
  facet normal 1 -0 0
    outer loop
      vertex 15 -5 3
      vertex 15 5 1
      vertex 15 5 3
    endloop
  endfacet
  facet normal 1 0 0
    outer loop
      vertex 15 5 1
      vertex 15 -5 3
      vertex 15 -5 1
    endloop
  endfacet
  facet normal -1 0 0
    outer loop
      vertex 50 -5 1
      vertex 50 5 3
      vertex 50 5 1
    endloop
  endfacet
  facet normal -1 -0 0
    outer loop
      vertex 50 5 3
      vertex 50 -5 1
      vertex 50 -5 3
    endloop
  endfacet
  facet normal 0 -1 0
    outer loop
      vertex 15 5 1
      vertex 50 5 3
      vertex 15 5 3
    endloop
  endfacet
  facet normal 0 -1 -0
    outer loop
      vertex 50 5 3
      vertex 15 5 1
      vertex 50 5 1
    endloop
  endfacet
  facet normal 0 1 -0
    outer loop
      vertex 50 -5 1
      vertex 15 -5 3
      vertex 50 -5 3
    endloop
  endfacet
  facet normal 0 1 0
    outer loop
      vertex 15 -5 3
      vertex 50 -5 1
      vertex 15 -5 1
    endloop
  endfacet
  facet normal -1 0 0
    outer loop
      vertex 53 -10 3
      vertex 53 10 5
      vertex 53 10 3
    endloop
  endfacet
  facet normal -1 -0 0
    outer loop
      vertex 53 10 5
      vertex 53 -10 3
      vertex 53 -10 5
    endloop
  endfacet
  facet normal 0 0 -1
    outer loop
      vertex 52 -10 5
      vertex 53 10 5
      vertex 53 -10 5
    endloop
  endfacet
  facet normal -0 0 -1
    outer loop
      vertex 53 10 5
      vertex 52 -10 5
      vertex 52 10 5
    endloop
  endfacet
  facet normal -1 0 0
    outer loop
      vertex 52 -10 5
      vertex 52 10 7
      vertex 52 10 5
    endloop
  endfacet
  facet normal -1 -0 0
    outer loop
      vertex 52 10 7
      vertex 52 -10 5
      vertex 52 -10 7
    endloop
  endfacet
  facet normal -0 0 1
    outer loop
      vertex 52 10 7
      vertex 55 -10 7
      vertex 55 10 7
    endloop
  endfacet
  facet normal 0 0 1
    outer loop
      vertex 55 -10 7
      vertex 52 10 7
      vertex 52 -10 7
    endloop
  endfacet
  facet normal -0 0 1
    outer loop
      vertex 10 -8 5
      vertex 35 -10 5
      vertex 35 -8 5
    endloop
  endfacet
  facet normal 0 0 1
    outer loop
      vertex 35 -10 5
      vertex 10 -8 5
      vertex 10 -10 5
    endloop
  endfacet
  facet normal 1 -0 0
    outer loop
      vertex 35 -10 5
      vertex 35 -8 3
      vertex 35 -8 5
    endloop
  endfacet
  facet normal 1 0 0
    outer loop
      vertex 35 -8 3
      vertex 35 -10 5
      vertex 35 -10 3
    endloop
  endfacet
  facet normal 0 1 -0
    outer loop
      vertex 35 -8 3
      vertex 10 -8 5
      vertex 35 -8 5
    endloop
  endfacet
  facet normal 0 1 0
    outer loop
      vertex 10 -8 5
      vertex 35 -8 3
      vertex 10 -8 3
    endloop
  endfacet
  facet normal -0 0 1
    outer loop
      vertex 10 10 5
      vertex 35 8 5
      vertex 35 10 5
    endloop
  endfacet
  facet normal 0 0 1
    outer loop
      vertex 35 8 5
      vertex 10 10 5
      vertex 10 8 5
    endloop
  endfacet
  facet normal 1 -0 0
    outer loop
      vertex 35 8 5
      vertex 35 10 3
      vertex 35 10 5
    endloop
  endfacet
  facet normal 1 0 0
    outer loop
      vertex 35 10 3
      vertex 35 8 5
      vertex 35 8 3
    endloop
  endfacet
  facet normal 0 -1 0
    outer loop
      vertex 10 8 3
      vertex 35 8 5
      vertex 10 8 5
    endloop
  endfacet
  facet normal 0 -1 -0
    outer loop
      vertex 35 8 5
      vertex 10 8 3
      vertex 35 8 3
    endloop
  endfacet
  facet normal -1 0 0
    outer loop
      vertex 8 8.99797 5.9375
      vertex 8 10 13.5
      vertex 8 10 6.20599
    endloop
  endfacet
  facet normal -1 0 0
    outer loop
      vertex 8 -8.99797 5.9375
      vertex 8 10 13.5
      vertex 8 8.99797 5.9375
    endloop
  endfacet
  facet normal -1 0 0
    outer loop
      vertex 8 -10 13.5
      vertex 8 -8.99797 5.9375
      vertex 8 -10 6.20599
    endloop
  endfacet
  facet normal -1 0 0
    outer loop
      vertex 8 -8.99797 5.9375
      vertex 8 -10 13.5
      vertex 8 10 13.5
    endloop
  endfacet
  facet normal -0 0 1
    outer loop
      vertex 8 10 13.5
      vertex 11 -10 13.5
      vertex 11 10 13.5
    endloop
  endfacet
  facet normal 0 0 1
    outer loop
      vertex 11 -10 13.5
      vertex 8 10 13.5
      vertex 8 -10 13.5
    endloop
  endfacet
  facet normal 1 0 0
    outer loop
      vertex 10 10 11.5
      vertex 10 8 5
      vertex 10 10 5
    endloop
  endfacet
  facet normal 1 0 0
    outer loop
      vertex 10 8 5
      vertex 10 -8 5
      vertex 10 8 3
    endloop
  endfacet
  facet normal 1 0 0
    outer loop
      vertex 10 10 11.5
      vertex 10 -8 5
      vertex 10 8 5
    endloop
  endfacet
  facet normal 1 -0 0
    outer loop
      vertex 10 -10 11.5
      vertex 10 -8 5
      vertex 10 10 11.5
    endloop
  endfacet
  facet normal 1 0 0
    outer loop
      vertex 10 -8 5
      vertex 10 -10 11.5
      vertex 10 -10 5
    endloop
  endfacet
  facet normal 1 0 0
    outer loop
      vertex 10 8 3
      vertex 10 -8 5
      vertex 10 -8 3
    endloop
  endfacet
  facet normal 1 -0 0
    outer loop
      vertex 11 -10 13.5
      vertex 11 10 11.5
      vertex 11 10 13.5
    endloop
  endfacet
  facet normal 1 0 0
    outer loop
      vertex 11 10 11.5
      vertex 11 -10 13.5
      vertex 11 -10 11.5
    endloop
  endfacet
  facet normal 0 0 -1
    outer loop
      vertex 10 -10 11.5
      vertex 11 10 11.5
      vertex 11 -10 11.5
    endloop
  endfacet
  facet normal -0 0 -1
    outer loop
      vertex 11 10 11.5
      vertex 10 -10 11.5
      vertex 10 10 11.5
    endloop
  endfacet
  facet normal 0 0 1
    outer loop
      vertex -35 10 3
      vertex -50 5 3
      vertex -35 8 3
    endloop
  endfacet
  facet normal 0 0 1
    outer loop
      vertex -50 5 3
      vertex -53 10 3
      vertex -50 -5 3
    endloop
  endfacet
  facet normal -0 0 1
    outer loop
      vertex -53 10 3
      vertex -50 5 3
      vertex -35 10 3
    endloop
  endfacet
  facet normal 0 0 1
    outer loop
      vertex -10 8 3
      vertex -15 5 3
      vertex -10 -8 3
    endloop
  endfacet
  facet normal -0 0 1
    outer loop
      vertex -35 8 3
      vertex -15 5 3
      vertex -10 8 3
    endloop
  endfacet
  facet normal 0 0 1
    outer loop
      vertex -15 5 3
      vertex -35 8 3
      vertex -50 5 3
    endloop
  endfacet
  facet normal -0 0 1
    outer loop
      vertex -15 -5 3
      vertex -10 -8 3
      vertex -15 5 3
    endloop
  endfacet
  facet normal 0 0 1
    outer loop
      vertex -15 -5 3
      vertex -35 -8 3
      vertex -10 -8 3
    endloop
  endfacet
  facet normal -0 0 1
    outer loop
      vertex -50 -5 3
      vertex -35 -8 3
      vertex -15 -5 3
    endloop
  endfacet
  facet normal 0 0 1
    outer loop
      vertex -50 -5 3
      vertex -35 -10 3
      vertex -35 -8 3
    endloop
  endfacet
  facet normal 0 0 1
    outer loop
      vertex -50 -5 3
      vertex -53 -10 3
      vertex -35 -10 3
    endloop
  endfacet
  facet normal 0 0 1
    outer loop
      vertex -53 -10 3
      vertex -50 -5 3
      vertex -53 10 3
    endloop
  endfacet
  facet normal -1 0 0
    outer loop
      vertex -55 -10 1
      vertex -55 10 7
      vertex -55 10 1
    endloop
  endfacet
  facet normal -1 -0 0
    outer loop
      vertex -55 10 7
      vertex -55 -10 1
      vertex -55 -10 7
    endloop
  endfacet
  facet normal -1 0 0
    outer loop
      vertex -15 -5 1
      vertex -15 5 3
      vertex -15 5 1
    endloop
  endfacet
  facet normal -1 -0 0
    outer loop
      vertex -15 5 3
      vertex -15 -5 1
      vertex -15 -5 3
    endloop
  endfacet
  facet normal 1 -0 0
    outer loop
      vertex -50 -5 3
      vertex -50 5 1
      vertex -50 5 3
    endloop
  endfacet
  facet normal 1 0 0
    outer loop
      vertex -50 5 1
      vertex -50 -5 3
      vertex -50 -5 1
    endloop
  endfacet
  facet normal 0 -1 0
    outer loop
      vertex -50 5 1
      vertex -15 5 3
      vertex -50 5 3
    endloop
  endfacet
  facet normal 0 -1 -0
    outer loop
      vertex -15 5 3
      vertex -50 5 1
      vertex -15 5 1
    endloop
  endfacet
  facet normal 0 1 -0
    outer loop
      vertex -15 -5 1
      vertex -50 -5 3
      vertex -15 -5 3
    endloop
  endfacet
  facet normal 0 1 0
    outer loop
      vertex -50 -5 3
      vertex -15 -5 1
      vertex -50 -5 1
    endloop
  endfacet
  facet normal 1 -0 0
    outer loop
      vertex -53 -10 5
      vertex -53 10 3
      vertex -53 10 5
    endloop
  endfacet
  facet normal 1 0 0
    outer loop
      vertex -53 10 3
      vertex -53 -10 5
      vertex -53 -10 3
    endloop
  endfacet
  facet normal 0 0 -1
    outer loop
      vertex -53 -10 5
      vertex -52 10 5
      vertex -52 -10 5
    endloop
  endfacet
  facet normal -0 0 -1
    outer loop
      vertex -52 10 5
      vertex -53 -10 5
      vertex -53 10 5
    endloop
  endfacet
  facet normal 1 -0 0
    outer loop
      vertex -52 -10 7
      vertex -52 10 5
      vertex -52 10 7
    endloop
  endfacet
  facet normal 1 0 0
    outer loop
      vertex -52 10 5
      vertex -52 -10 7
      vertex -52 -10 5
    endloop
  endfacet
  facet normal -0 0 1
    outer loop
      vertex -55 10 7
      vertex -52 -10 7
      vertex -52 10 7
    endloop
  endfacet
  facet normal 0 0 1
    outer loop
      vertex -52 -10 7
      vertex -55 10 7
      vertex -55 -10 7
    endloop
  endfacet
  facet normal -0 0 1
    outer loop
      vertex -35 -8 5
      vertex -10 -10 5
      vertex -10 -8 5
    endloop
  endfacet
  facet normal 0 0 1
    outer loop
      vertex -10 -10 5
      vertex -35 -8 5
      vertex -35 -10 5
    endloop
  endfacet
  facet normal -1 0 0
    outer loop
      vertex -35 -10 3
      vertex -35 -8 5
      vertex -35 -8 3
    endloop
  endfacet
  facet normal -1 -0 0
    outer loop
      vertex -35 -8 5
      vertex -35 -10 3
      vertex -35 -10 5
    endloop
  endfacet
  facet normal 0 1 -0
    outer loop
      vertex -10 -8 3
      vertex -35 -8 5
      vertex -10 -8 5
    endloop
  endfacet
  facet normal 0 1 0
    outer loop
      vertex -35 -8 5
      vertex -10 -8 3
      vertex -35 -8 3
    endloop
  endfacet
  facet normal -0 0 1
    outer loop
      vertex -35 10 5
      vertex -10 8 5
      vertex -10 10 5
    endloop
  endfacet
  facet normal 0 0 1
    outer loop
      vertex -10 8 5
      vertex -35 10 5
      vertex -35 8 5
    endloop
  endfacet
  facet normal -1 0 0
    outer loop
      vertex -35 8 3
      vertex -35 10 5
      vertex -35 10 3
    endloop
  endfacet
  facet normal -1 -0 0
    outer loop
      vertex -35 10 5
      vertex -35 8 3
      vertex -35 8 5
    endloop
  endfacet
  facet normal 0 -1 0
    outer loop
      vertex -35 8 3
      vertex -10 8 5
      vertex -35 8 5
    endloop
  endfacet
  facet normal 0 -1 -0
    outer loop
      vertex -10 8 5
      vertex -35 8 3
      vertex -10 8 3
    endloop
  endfacet
  facet normal 1 0 0
    outer loop
      vertex -8 10 13.5
      vertex -8 8.99797 5.9375
      vertex -8 10 6.20599
    endloop
  endfacet
  facet normal 1 0 0
    outer loop
      vertex -8 10 13.5
      vertex -8 -8.99797 5.9375
      vertex -8 8.99797 5.9375
    endloop
  endfacet
  facet normal 1 -0 0
    outer loop
      vertex -8 -10 13.5
      vertex -8 -8.99797 5.9375
      vertex -8 10 13.5
    endloop
  endfacet
  facet normal 1 0 0
    outer loop
      vertex -8 -8.99797 5.9375
      vertex -8 -10 13.5
      vertex -8 -10 6.20599
    endloop
  endfacet
  facet normal -0 0 1
    outer loop
      vertex -11 10 13.5
      vertex -8 -10 13.5
      vertex -8 10 13.5
    endloop
  endfacet
  facet normal 0 0 1
    outer loop
      vertex -8 -10 13.5
      vertex -11 10 13.5
      vertex -11 -10 13.5
    endloop
  endfacet
  facet normal -1 0 0
    outer loop
      vertex -10 8 3
      vertex -10 -8 3
      vertex -10 8 5
    endloop
  endfacet
  facet normal -1 0 0
    outer loop
      vertex -10 8 5
      vertex -10 10 11.5
      vertex -10 10 5
    endloop
  endfacet
  facet normal -1 0 0
    outer loop
      vertex -10 -8 5
      vertex -10 8 5
      vertex -10 -8 3
    endloop
  endfacet
  facet normal -1 0 0
    outer loop
      vertex -10 8 5
      vertex -10 -8 5
      vertex -10 10 11.5
    endloop
  endfacet
  facet normal -1 0 0
    outer loop
      vertex -10 -10 11.5
      vertex -10 -8 5
      vertex -10 -10 5
    endloop
  endfacet
  facet normal -1 0 0
    outer loop
      vertex -10 -8 5
      vertex -10 -10 11.5
      vertex -10 10 11.5
    endloop
  endfacet
  facet normal -1 0 0
    outer loop
      vertex -11 -10 11.5
      vertex -11 10 13.5
      vertex -11 10 11.5
    endloop
  endfacet
  facet normal -1 -0 0
    outer loop
      vertex -11 10 13.5
      vertex -11 -10 11.5
      vertex -11 -10 13.5
    endloop
  endfacet
  facet normal 0 0 -1
    outer loop
      vertex -11 -10 11.5
      vertex -10 10 11.5
      vertex -10 -10 11.5
    endloop
  endfacet
  facet normal -0 0 -1
    outer loop
      vertex -10 10 11.5
      vertex -11 -10 11.5
      vertex -11 10 11.5
    endloop
  endfacet
  facet normal -1 0 0
    outer loop
      vertex -11.875 -26.4813 4.75
      vertex -11.875 -21.7313 11.875
      vertex -11.875 -21.7313 4.75
    endloop
  endfacet
  facet normal -1 -0 0
    outer loop
      vertex -11.875 -21.7313 11.875
      vertex -11.875 -26.4813 4.75
      vertex -11.875 -26.4813 11.875
    endloop
  endfacet
  facet normal -0 0 1
    outer loop
      vertex -11.875 -21.7313 11.875
      vertex 11.875 -26.4813 11.875
      vertex 11.875 -21.7313 11.875
    endloop
  endfacet
  facet normal 0 0 1
    outer loop
      vertex 11.875 -26.4813 11.875
      vertex -11.875 -21.7313 11.875
      vertex -11.875 -26.4813 11.875
    endloop
  endfacet
  facet normal 1 -0 0
    outer loop
      vertex 11.875 -26.4813 11.875
      vertex 11.875 -21.7313 4.75
      vertex 11.875 -21.7313 11.875
    endloop
  endfacet
  facet normal 1 0 0
    outer loop
      vertex 11.875 -21.7313 4.75
      vertex 11.875 -26.4813 11.875
      vertex 11.875 -26.4813 4.75
    endloop
  endfacet
  facet normal 0 1 0
    outer loop
      vertex 11.875 -21.7313 11.875
      vertex 9.5 -21.7313 9.18181
      vertex -11.875 -21.7313 11.875
    endloop
  endfacet
  facet normal 0 1 -0
    outer loop
      vertex 11.875 -21.7313 4.75
      vertex 9.5 -21.7313 9.18181
      vertex 11.875 -21.7313 11.875
    endloop
  endfacet
  facet normal 0 1 0
    outer loop
      vertex 9.5 -21.7313 9.18181
      vertex 11.875 -21.7313 4.75
      vertex 9.5 -21.7313 4.75
    endloop
  endfacet
  facet normal 0 1 -0
    outer loop
      vertex -9.5 -21.7313 9.18181
      vertex -11.875 -21.7313 11.875
      vertex 9.5 -21.7313 9.18181
    endloop
  endfacet
  facet normal 0 1 0
    outer loop
      vertex -11.875 -21.7313 4.75
      vertex -9.5 -21.7313 9.18181
      vertex -9.5 -21.7313 4.75
    endloop
  endfacet
  facet normal 0 1 0
    outer loop
      vertex -9.5 -21.7313 9.18181
      vertex -11.875 -21.7313 4.75
      vertex -11.875 -21.7313 11.875
    endloop
  endfacet
  facet normal 0 0 -1
    outer loop
      vertex 11.875 -26.4813 4.75
      vertex 9.5 -22.9188 4.75
      vertex 11.875 -21.7313 4.75
    endloop
  endfacet
  facet normal 0 0 -1
    outer loop
      vertex 11.875 -26.4813 4.75
      vertex -9.5 -22.9188 4.75
      vertex 9.5 -22.9188 4.75
    endloop
  endfacet
  facet normal 0 0 -1
    outer loop
      vertex -11.875 -26.4813 4.75
      vertex -9.5 -22.9188 4.75
      vertex 11.875 -26.4813 4.75
    endloop
  endfacet
  facet normal 0 0 -1
    outer loop
      vertex -11.875 -21.7313 4.75
      vertex -9.5 -22.9188 4.75
      vertex -11.875 -26.4813 4.75
    endloop
  endfacet
  facet normal 0 0 -1
    outer loop
      vertex -9.5 -22.9188 4.75
      vertex -11.875 -21.7313 4.75
      vertex -9.5 -21.7313 4.75
    endloop
  endfacet
  facet normal -0 0 -1
    outer loop
      vertex 11.875 -21.7313 4.75
      vertex 9.5 -22.9188 4.75
      vertex 9.5 -21.7313 4.75
    endloop
  endfacet
  facet normal 0 -1 0
    outer loop
      vertex 11.875 -26.4813 11.875
      vertex 7.23074 -26.4813 8.90178
      vertex 8.06926 -26.4813 9.17423
    endloop
  endfacet
  facet normal 0 -1 0
    outer loop
      vertex -7.0875 -26.4813 8.46094
      vertex 7.23074 -26.4813 8.90178
      vertex -7.60574 -26.4813 9.17423
    endloop
  endfacet
  facet normal 0 -1 0
    outer loop
      vertex -7.0875 -26.4813 8.46094
      vertex 7.23074 -26.4813 8.0201
      vertex 7.23074 -26.4813 8.90178
    endloop
  endfacet
  facet normal 0 -1 0
    outer loop
      vertex -7.60574 -26.4813 7.74764
      vertex 7.23074 -26.4813 8.0201
      vertex -7.0875 -26.4813 8.46094
    endloop
  endfacet
  facet normal 0 -1 0
    outer loop
      vertex 11.875 -26.4813 4.75
      vertex 7.23074 -26.4813 8.0201
      vertex -7.60574 -26.4813 7.74764
    endloop
  endfacet
  facet normal 0 -1 0
    outer loop
      vertex -11.875 -26.4813 11.875
      vertex -7.60574 -26.4813 9.17423
      vertex 11.875 -26.4813 11.875
    endloop
  endfacet
  facet normal 0 -1 0
    outer loop
      vertex -11.875 -26.4813 11.875
      vertex -8.44426 -26.4813 8.90178
      vertex -7.60574 -26.4813 9.17423
    endloop
  endfacet
  facet normal 0 -1 0
    outer loop
      vertex -11.875 -26.4813 11.875
      vertex -8.44426 -26.4813 8.0201
      vertex -8.44426 -26.4813 8.90178
    endloop
  endfacet
  facet normal 0 -1 0
    outer loop
      vertex 11.875 -26.4813 4.75
      vertex -7.60574 -26.4813 7.74764
      vertex -11.875 -26.4813 4.75
    endloop
  endfacet
  facet normal 0 -1 -0
    outer loop
      vertex -8.44426 -26.4813 8.0201
      vertex -11.875 -26.4813 4.75
      vertex -7.60574 -26.4813 7.74764
    endloop
  endfacet
  facet normal 0 -1 0
    outer loop
      vertex -11.875 -26.4813 4.75
      vertex -8.44426 -26.4813 8.0201
      vertex -11.875 -26.4813 11.875
    endloop
  endfacet
  facet normal 0 -1 0
    outer loop
      vertex 7.23074 -26.4813 8.90178
      vertex 11.875 -26.4813 11.875
      vertex -7.60574 -26.4813 9.17423
    endloop
  endfacet
  facet normal 0 -1 0
    outer loop
      vertex 8.5875 -26.4813 8.46094
      vertex 11.875 -26.4813 11.875
      vertex 8.06926 -26.4813 9.17423
    endloop
  endfacet
  facet normal 0 -1 0
    outer loop
      vertex 11.875 -26.4813 4.75
      vertex 8.5875 -26.4813 8.46094
      vertex 8.06926 -26.4813 7.74764
    endloop
  endfacet
  facet normal 0 -1 0
    outer loop
      vertex 8.5875 -26.4813 8.46094
      vertex 11.875 -26.4813 4.75
      vertex 11.875 -26.4813 11.875
    endloop
  endfacet
  facet normal 0 -1 0
    outer loop
      vertex 7.23074 -26.4813 8.0201
      vertex 11.875 -26.4813 4.75
      vertex 8.06926 -26.4813 7.74764
    endloop
  endfacet
  facet normal -0.809017 0 -0.587785
    outer loop
      vertex -7.60574 -26.4813 9.17423
      vertex -7.0875 -21.9244 8.46094
      vertex -7.0875 -26.4813 8.46094
    endloop
  endfacet
  facet normal -0.809017 0 -0.587785
    outer loop
      vertex -7.0875 -21.9244 8.46094
      vertex -7.60574 -26.4813 9.17423
      vertex -7.60574 -21.7333 9.17423
    endloop
  endfacet
  facet normal 0.309017 0 -0.951057
    outer loop
      vertex -8.44426 -21.8063 8.90178
      vertex -7.60574 -26.4813 9.17423
      vertex -8.44426 -26.4813 8.90178
    endloop
  endfacet
  facet normal 0.309017 0 -0.951057
    outer loop
      vertex -7.60574 -26.4813 9.17423
      vertex -8.44426 -21.8063 8.90178
      vertex -7.60574 -21.7333 9.17423
    endloop
  endfacet
  facet normal 1 -0 0
    outer loop
      vertex -8.44426 -26.4813 8.90178
      vertex -8.44426 -22.0425 8.0201
      vertex -8.44426 -21.8063 8.90178
    endloop
  endfacet
  facet normal 1 0 0
    outer loop
      vertex -8.44426 -22.0425 8.0201
      vertex -8.44426 -26.4813 8.90178
      vertex -8.44426 -26.4813 8.0201
    endloop
  endfacet
  facet normal 0.309017 -0 0.951057
    outer loop
      vertex -8.44426 -26.4813 8.0201
      vertex -7.60574 -22.1155 7.74764
      vertex -8.44426 -22.0425 8.0201
    endloop
  endfacet
  facet normal 0.309017 0 0.951057
    outer loop
      vertex -7.60574 -22.1155 7.74764
      vertex -8.44426 -26.4813 8.0201
      vertex -7.60574 -26.4813 7.74764
    endloop
  endfacet
  facet normal -0.809017 0 0.587785
    outer loop
      vertex -7.0875 -26.4813 8.46094
      vertex -7.60574 -22.1155 7.74764
      vertex -7.60574 -26.4813 7.74764
    endloop
  endfacet
  facet normal -0.809017 0 0.587785
    outer loop
      vertex -7.60574 -22.1155 7.74764
      vertex -7.0875 -26.4813 8.46094
      vertex -7.0875 -21.9244 8.46094
    endloop
  endfacet
  facet normal -0.809017 0 -0.587785
    outer loop
      vertex 8.06926 -26.4813 9.17423
      vertex 8.5875 -21.9244 8.46094
      vertex 8.5875 -26.4813 8.46094
    endloop
  endfacet
  facet normal -0.809017 0 -0.587785
    outer loop
      vertex 8.5875 -21.9244 8.46094
      vertex 8.06926 -26.4813 9.17423
      vertex 8.06926 -21.7333 9.17423
    endloop
  endfacet
  facet normal 0.309017 0 -0.951057
    outer loop
      vertex 7.23074 -21.8063 8.90178
      vertex 8.06926 -26.4813 9.17423
      vertex 7.23074 -26.4813 8.90178
    endloop
  endfacet
  facet normal 0.309017 0 -0.951057
    outer loop
      vertex 8.06926 -26.4813 9.17423
      vertex 7.23074 -21.8063 8.90178
      vertex 8.06926 -21.7333 9.17423
    endloop
  endfacet
  facet normal 1 -0 0
    outer loop
      vertex 7.23074 -26.4813 8.90178
      vertex 7.23074 -22.0425 8.0201
      vertex 7.23074 -21.8063 8.90178
    endloop
  endfacet
  facet normal 1 0 0
    outer loop
      vertex 7.23074 -22.0425 8.0201
      vertex 7.23074 -26.4813 8.90178
      vertex 7.23074 -26.4813 8.0201
    endloop
  endfacet
  facet normal 0.309017 -0 0.951057
    outer loop
      vertex 7.23074 -26.4813 8.0201
      vertex 8.06926 -22.1155 7.74764
      vertex 7.23074 -22.0425 8.0201
    endloop
  endfacet
  facet normal 0.309017 0 0.951057
    outer loop
      vertex 8.06926 -22.1155 7.74764
      vertex 7.23074 -26.4813 8.0201
      vertex 8.06926 -26.4813 7.74764
    endloop
  endfacet
  facet normal -0.809017 0 0.587785
    outer loop
      vertex 8.5875 -26.4813 8.46094
      vertex 8.06926 -22.1155 7.74764
      vertex 8.06926 -26.4813 7.74764
    endloop
  endfacet
  facet normal -0.809017 0 0.587785
    outer loop
      vertex 8.06926 -22.1155 7.74764
      vertex 8.5875 -26.4813 8.46094
      vertex 8.5875 -21.9244 8.46094
    endloop
  endfacet
  facet normal -1 0 0
    outer loop
      vertex -9.5 10 6.20599
      vertex -9.5 21.7313 9.18181
      vertex -9.5 21.7313 4.75
    endloop
  endfacet
  facet normal -1 0 0
    outer loop
      vertex -9.5 10 1.28843
      vertex -9.5 21.7313 4.75
      vertex -9.5 22.9188 4.75
    endloop
  endfacet
  facet normal -1 0 0
    outer loop
      vertex -9.5 10 6.20599
      vertex -9.5 21.7313 4.75
      vertex -9.5 10 1.28843
    endloop
  endfacet
  facet normal -1 -0 0
    outer loop
      vertex -9.5 21.7313 9.18181
      vertex -9.5 10 6.20599
      vertex -9.5 21.6894 9.33815
    endloop
  endfacet
  facet normal -1 0 0
    outer loop
      vertex -9.5 -21.7313 4.75
      vertex -9.5 -10 6.20599
      vertex -9.5 -10 1.28843
    endloop
  endfacet
  facet normal -1 -0 0
    outer loop
      vertex -9.5 -10 6.20599
      vertex -9.5 -21.7313 4.75
      vertex -9.5 -21.7313 9.18181
    endloop
  endfacet
  facet normal -1 -0 -0
    outer loop
      vertex -9.5 -21.7313 4.75
      vertex -9.5 -10 1.28843
      vertex -9.5 -22.9188 4.75
    endloop
  endfacet
  facet normal -1 0 0
    outer loop
      vertex -9.5 -10 6.20599
      vertex -9.5 -21.7313 9.18181
      vertex -9.5 -21.6894 9.33815
    endloop
  endfacet
  facet normal 0 0.258819 0.965926
    outer loop
      vertex 8 -8.99797 5.9375
      vertex -8 -8.99797 5.9375
      vertex 8 -10 6.20599
    endloop
  endfacet
  facet normal -0 0.258819 0.965926
    outer loop
      vertex 8 -10 6.20599
      vertex 9.5 -21.6894 9.33815
      vertex 9.5 -10 6.20599
    endloop
  endfacet
  facet normal -0 0.258819 0.965926
    outer loop
      vertex -8 -10 6.20599
      vertex 8 -10 6.20599
      vertex -8 -8.99797 5.9375
    endloop
  endfacet
  facet normal 0 0.258819 0.965926
    outer loop
      vertex 8 -10 6.20599
      vertex -8 -10 6.20599
      vertex 9.5 -21.6894 9.33815
    endloop
  endfacet
  facet normal 0 0.258819 0.965926
    outer loop
      vertex -9.5 -21.6894 9.33815
      vertex -8 -10 6.20599
      vertex -9.5 -10 6.20599
    endloop
  endfacet
  facet normal 0 0.258819 0.965926
    outer loop
      vertex -8 -10 6.20599
      vertex -9.5 -21.6894 9.33815
      vertex 9.5 -21.6894 9.33815
    endloop
  endfacet
  facet normal 1 0 0
    outer loop
      vertex 9.5 10 6.20599
      vertex 9.5 21.7313 9.18181
      vertex 9.5 21.6894 9.33815
    endloop
  endfacet
  facet normal 1 0 0
    outer loop
      vertex 9.5 21.7313 9.18181
      vertex 9.5 10 6.20599
      vertex 9.5 21.7313 4.75
    endloop
  endfacet
  facet normal 1 -0 0
    outer loop
      vertex 9.5 21.7313 4.75
      vertex 9.5 10 1.28843
      vertex 9.5 22.9188 4.75
    endloop
  endfacet
  facet normal 1 0 0
    outer loop
      vertex 9.5 10 1.28843
      vertex 9.5 21.7313 4.75
      vertex 9.5 10 6.20599
    endloop
  endfacet
  facet normal 1 -0 0
    outer loop
      vertex 9.5 -21.7313 9.18181
      vertex 9.5 -10 6.20599
      vertex 9.5 -21.6894 9.33815
    endloop
  endfacet
  facet normal 1 0 0
    outer loop
      vertex 9.5 -21.7313 4.75
      vertex 9.5 -10 6.20599
      vertex 9.5 -21.7313 9.18181
    endloop
  endfacet
  facet normal 1 0 0
    outer loop
      vertex 9.5 -10 6.20599
      vertex 9.5 -21.7313 4.75
      vertex 9.5 -10 1.28843
    endloop
  endfacet
  facet normal 1 0 0
    outer loop
      vertex 9.5 -10 1.28843
      vertex 9.5 -21.7313 4.75
      vertex 9.5 -22.9188 4.75
    endloop
  endfacet
  facet normal 0 -0.258819 -0.965926
    outer loop
      vertex -9.5 -22.9188 4.75
      vertex 9.5 -10 1.28843
      vertex 9.5 -22.9188 4.75
    endloop
  endfacet
  facet normal -0 -0.258819 -0.965926
    outer loop
      vertex 9.5 -10 1.28843
      vertex -9.5 -22.9188 4.75
      vertex -9.5 -10 1.28843
    endloop
  endfacet
  facet normal 0 -0.965923 0.25883
    outer loop
      vertex -9.5 -21.7313 9.18181
      vertex 9.5 -21.6894 9.33815
      vertex -9.5 -21.6894 9.33815
    endloop
  endfacet
  facet normal 0 -0.965923 0.25883
    outer loop
      vertex 9.5 -21.6894 9.33815
      vertex -9.5 -21.7313 9.18181
      vertex 9.5 -21.7313 9.18181
    endloop
  endfacet
  facet normal 1.79988e-07 -0.965926 0.258819
    outer loop
      vertex -8.44426 -21.8063 8.90178
      vertex -7.0875 -21.9244 8.46094
      vertex -7.60574 -21.7333 9.17423
    endloop
  endfacet
  facet normal 5.8799e-07 -0.965926 0.25882
    outer loop
      vertex -8.44426 -22.0425 8.0201
      vertex -7.0875 -21.9244 8.46094
      vertex -8.44426 -21.8063 8.90178
    endloop
  endfacet
  facet normal 4.08002e-07 -0.965925 0.258821
    outer loop
      vertex -7.0875 -21.9244 8.46094
      vertex -8.44426 -22.0425 8.0201
      vertex -7.60574 -22.1155 7.74764
    endloop
  endfacet
  facet normal 1.79988e-07 -0.965926 0.258819
    outer loop
      vertex 7.23074 -21.8063 8.90178
      vertex 8.5875 -21.9244 8.46094
      vertex 8.06926 -21.7333 9.17423
    endloop
  endfacet
  facet normal 5.8799e-07 -0.965926 0.25882
    outer loop
      vertex 7.23074 -22.0425 8.0201
      vertex 8.5875 -21.9244 8.46094
      vertex 7.23074 -21.8063 8.90178
    endloop
  endfacet
  facet normal 4.08002e-07 -0.965925 0.258821
    outer loop
      vertex 8.5875 -21.9244 8.46094
      vertex 7.23074 -22.0425 8.0201
      vertex 8.06926 -22.1155 7.74764
    endloop
  endfacet
  facet normal 0 0 1
    outer loop
      vertex 8 8.99797 5.9375
      vertex 2 0 5.9375
      vertex 8 -8.99797 5.9375
    endloop
  endfacet
  facet normal 0 0 1
    outer loop
      vertex 8 8.99797 5.9375
      vertex 1.61803 1.17557 5.9375
      vertex 2 0 5.9375
    endloop
  endfacet
  facet normal 0 0 1
    outer loop
      vertex 8 8.99797 5.9375
      vertex 0.618033 1.90211 5.9375
      vertex 1.61803 1.17557 5.9375
    endloop
  endfacet
  facet normal 0 0 1
    outer loop
      vertex 8 8.99797 5.9375
      vertex -0.618033 1.90211 5.9375
      vertex 0.618033 1.90211 5.9375
    endloop
  endfacet
  facet normal -0 0 1
    outer loop
      vertex -8 8.99797 5.9375
      vertex -0.618033 1.90211 5.9375
      vertex 8 8.99797 5.9375
    endloop
  endfacet
  facet normal 0 0 1
    outer loop
      vertex -1.61803 1.17557 5.9375
      vertex -8 8.99797 5.9375
      vertex -2 0 5.9375
    endloop
  endfacet
  facet normal 0 0 1
    outer loop
      vertex -0.618033 1.90211 5.9375
      vertex -8 8.99797 5.9375
      vertex -1.61803 1.17557 5.9375
    endloop
  endfacet
  facet normal -0 0 1
    outer loop
      vertex 1.61803 -1.17557 5.9375
      vertex 8 -8.99797 5.9375
      vertex 2 0 5.9375
    endloop
  endfacet
  facet normal -0 0 1
    outer loop
      vertex 0.618033 -1.90211 5.9375
      vertex 8 -8.99797 5.9375
      vertex 1.61803 -1.17557 5.9375
    endloop
  endfacet
  facet normal -0 0 1
    outer loop
      vertex -0.618033 -1.90211 5.9375
      vertex 8 -8.99797 5.9375
      vertex 0.618033 -1.90211 5.9375
    endloop
  endfacet
  facet normal 0 0 1
    outer loop
      vertex -8 -8.99797 5.9375
      vertex -0.618033 -1.90211 5.9375
      vertex -1.61803 -1.17557 5.9375
    endloop
  endfacet
  facet normal 0 0 1
    outer loop
      vertex -8 -8.99797 5.9375
      vertex -2 0 5.9375
      vertex -8 8.99797 5.9375
    endloop
  endfacet
  facet normal 0 0 1
    outer loop
      vertex -0.618033 -1.90211 5.9375
      vertex -8 -8.99797 5.9375
      vertex 8 -8.99797 5.9375
    endloop
  endfacet
  facet normal 0 0 1
    outer loop
      vertex -2 0 5.9375
      vertex -8 -8.99797 5.9375
      vertex -1.61803 -1.17557 5.9375
    endloop
  endfacet
  facet normal -1 0 0
    outer loop
      vertex -11.875 21.7313 4.75
      vertex -11.875 26.4813 11.875
      vertex -11.875 26.4813 4.75
    endloop
  endfacet
  facet normal -1 -0 0
    outer loop
      vertex -11.875 26.4813 11.875
      vertex -11.875 21.7313 4.75
      vertex -11.875 21.7313 11.875
    endloop
  endfacet
  facet normal -0 0 1
    outer loop
      vertex -11.875 26.4813 11.875
      vertex 11.875 21.7313 11.875
      vertex 11.875 26.4813 11.875
    endloop
  endfacet
  facet normal 0 0 1
    outer loop
      vertex 11.875 21.7313 11.875
      vertex -11.875 26.4813 11.875
      vertex -11.875 21.7313 11.875
    endloop
  endfacet
  facet normal 1 -0 0
    outer loop
      vertex 11.875 21.7313 11.875
      vertex 11.875 26.4813 4.75
      vertex 11.875 26.4813 11.875
    endloop
  endfacet
  facet normal 1 0 0
    outer loop
      vertex 11.875 26.4813 4.75
      vertex 11.875 21.7313 11.875
      vertex 11.875 21.7313 4.75
    endloop
  endfacet
  facet normal 0 -1 0
    outer loop
      vertex -11.875 21.7313 11.875
      vertex -9.5 21.7313 9.18181
      vertex 11.875 21.7313 11.875
    endloop
  endfacet
  facet normal 0 -1 0
    outer loop
      vertex -11.875 21.7313 4.75
      vertex -9.5 21.7313 9.18181
      vertex -11.875 21.7313 11.875
    endloop
  endfacet
  facet normal 0 -1 -0
    outer loop
      vertex -9.5 21.7313 9.18181
      vertex -11.875 21.7313 4.75
      vertex -9.5 21.7313 4.75
    endloop
  endfacet
  facet normal 0 -1 0
    outer loop
      vertex 9.5 21.7313 9.18181
      vertex 11.875 21.7313 11.875
      vertex -9.5 21.7313 9.18181
    endloop
  endfacet
  facet normal 0 -1 0
    outer loop
      vertex 11.875 21.7313 4.75
      vertex 9.5 21.7313 9.18181
      vertex 9.5 21.7313 4.75
    endloop
  endfacet
  facet normal 0 -1 0
    outer loop
      vertex 9.5 21.7313 9.18181
      vertex 11.875 21.7313 4.75
      vertex 11.875 21.7313 11.875
    endloop
  endfacet
  facet normal 0 0 -1
    outer loop
      vertex -9.5 21.7313 4.75
      vertex -11.875 21.7313 4.75
      vertex -9.5 22.9188 4.75
    endloop
  endfacet
  facet normal 0 0 -1
    outer loop
      vertex 9.5 22.9188 4.75
      vertex 11.875 21.7313 4.75
      vertex 9.5 21.7313 4.75
    endloop
  endfacet
  facet normal 0 0 -1
    outer loop
      vertex 11.875 21.7313 4.75
      vertex 9.5 22.9188 4.75
      vertex 11.875 26.4813 4.75
    endloop
  endfacet
  facet normal 0 0 -1
    outer loop
      vertex -9.5 22.9188 4.75
      vertex 11.875 26.4813 4.75
      vertex 9.5 22.9188 4.75
    endloop
  endfacet
  facet normal 0 0 -1
    outer loop
      vertex -9.5 22.9188 4.75
      vertex -11.875 26.4813 4.75
      vertex 11.875 26.4813 4.75
    endloop
  endfacet
  facet normal 0 0 -1
    outer loop
      vertex -11.875 26.4813 4.75
      vertex -9.5 22.9188 4.75
      vertex -11.875 21.7313 4.75
    endloop
  endfacet
  facet normal 0 1 0
    outer loop
      vertex 11.875 26.4813 11.875
      vertex 7.23074 26.4813 8.90178
      vertex -7.60574 26.4813 9.17423
    endloop
  endfacet
  facet normal 0 1 0
    outer loop
      vertex 7.23074 26.4813 8.90178
      vertex -7.0875 26.4813 8.46094
      vertex -7.60574 26.4813 9.17423
    endloop
  endfacet
  facet normal 0 1 -0
    outer loop
      vertex 7.23074 26.4813 8.0201
      vertex -7.0875 26.4813 8.46094
      vertex 7.23074 26.4813 8.90178
    endloop
  endfacet
  facet normal 0 1 0
    outer loop
      vertex 11.875 26.4813 4.75
      vertex 7.23074 26.4813 8.0201
      vertex 8.06926 26.4813 7.74764
    endloop
  endfacet
  facet normal 0 1 0
    outer loop
      vertex 7.23074 26.4813 8.0201
      vertex -7.60574 26.4813 7.74764
      vertex -7.0875 26.4813 8.46094
    endloop
  endfacet
  facet normal 0 1 0
    outer loop
      vertex 7.23074 26.4813 8.90178
      vertex 11.875 26.4813 11.875
      vertex 8.06926 26.4813 9.17423
    endloop
  endfacet
  facet normal 0 1 0
    outer loop
      vertex 11.875 26.4813 11.875
      vertex 8.5875 26.4813 8.46094
      vertex 8.06926 26.4813 9.17423
    endloop
  endfacet
  facet normal 0 1 -0
    outer loop
      vertex 11.875 26.4813 4.75
      vertex 8.5875 26.4813 8.46094
      vertex 11.875 26.4813 11.875
    endloop
  endfacet
  facet normal 0 1 0
    outer loop
      vertex 7.23074 26.4813 8.0201
      vertex 11.875 26.4813 4.75
      vertex -7.60574 26.4813 7.74764
    endloop
  endfacet
  facet normal 0 1 0
    outer loop
      vertex 8.5875 26.4813 8.46094
      vertex 11.875 26.4813 4.75
      vertex 8.06926 26.4813 7.74764
    endloop
  endfacet
  facet normal 0 1 0
    outer loop
      vertex 11.875 26.4813 11.875
      vertex -7.60574 26.4813 9.17423
      vertex -11.875 26.4813 11.875
    endloop
  endfacet
  facet normal 0 1 -0
    outer loop
      vertex -8.44426 26.4813 8.90178
      vertex -11.875 26.4813 11.875
      vertex -7.60574 26.4813 9.17423
    endloop
  endfacet
  facet normal 0 1 -0
    outer loop
      vertex -8.44426 26.4813 8.0201
      vertex -11.875 26.4813 11.875
      vertex -8.44426 26.4813 8.90178
    endloop
  endfacet
  facet normal 0 1 0
    outer loop
      vertex -8.44426 26.4813 8.0201
      vertex -11.875 26.4813 4.75
      vertex -11.875 26.4813 11.875
    endloop
  endfacet
  facet normal 0 1 0
    outer loop
      vertex -7.60574 26.4813 7.74764
      vertex -11.875 26.4813 4.75
      vertex -8.44426 26.4813 8.0201
    endloop
  endfacet
  facet normal 0 1 0
    outer loop
      vertex -11.875 26.4813 4.75
      vertex -7.60574 26.4813 7.74764
      vertex 11.875 26.4813 4.75
    endloop
  endfacet
  facet normal -0.809017 0 -0.587785
    outer loop
      vertex -7.0875 21.9244 8.46094
      vertex -7.60574 26.4813 9.17423
      vertex -7.0875 26.4813 8.46094
    endloop
  endfacet
  facet normal -0.809017 -0 -0.587785
    outer loop
      vertex -7.60574 26.4813 9.17423
      vertex -7.0875 21.9244 8.46094
      vertex -7.60574 21.7333 9.17423
    endloop
  endfacet
  facet normal 0.309017 0 -0.951057
    outer loop
      vertex -8.44426 21.8063 8.90178
      vertex -7.60574 26.4813 9.17423
      vertex -7.60574 21.7333 9.17423
    endloop
  endfacet
  facet normal 0.309017 0 -0.951057
    outer loop
      vertex -7.60574 26.4813 9.17423
      vertex -8.44426 21.8063 8.90178
      vertex -8.44426 26.4813 8.90178
    endloop
  endfacet
  facet normal 1 0 0
    outer loop
      vertex -8.44426 26.4813 8.90178
      vertex -8.44426 22.0425 8.0201
      vertex -8.44426 26.4813 8.0201
    endloop
  endfacet
  facet normal 1 0 -0
    outer loop
      vertex -8.44426 22.0425 8.0201
      vertex -8.44426 26.4813 8.90178
      vertex -8.44426 21.8063 8.90178
    endloop
  endfacet
  facet normal 0.309017 0 0.951057
    outer loop
      vertex -8.44426 26.4813 8.0201
      vertex -7.60574 22.1155 7.74764
      vertex -7.60574 26.4813 7.74764
    endloop
  endfacet
  facet normal 0.309017 0 0.951057
    outer loop
      vertex -7.60574 22.1155 7.74764
      vertex -8.44426 26.4813 8.0201
      vertex -8.44426 22.0425 8.0201
    endloop
  endfacet
  facet normal -0.809017 0 0.587785
    outer loop
      vertex -7.60574 22.1155 7.74764
      vertex -7.0875 26.4813 8.46094
      vertex -7.60574 26.4813 7.74764
    endloop
  endfacet
  facet normal -0.809017 0 0.587785
    outer loop
      vertex -7.0875 26.4813 8.46094
      vertex -7.60574 22.1155 7.74764
      vertex -7.0875 21.9244 8.46094
    endloop
  endfacet
  facet normal -0.809017 0 -0.587785
    outer loop
      vertex 8.5875 21.9244 8.46094
      vertex 8.06926 26.4813 9.17423
      vertex 8.5875 26.4813 8.46094
    endloop
  endfacet
  facet normal -0.809017 -0 -0.587785
    outer loop
      vertex 8.06926 26.4813 9.17423
      vertex 8.5875 21.9244 8.46094
      vertex 8.06926 21.7333 9.17423
    endloop
  endfacet
  facet normal 0.309017 0 -0.951057
    outer loop
      vertex 7.23074 21.8063 8.90178
      vertex 8.06926 26.4813 9.17423
      vertex 8.06926 21.7333 9.17423
    endloop
  endfacet
  facet normal 0.309017 0 -0.951057
    outer loop
      vertex 8.06926 26.4813 9.17423
      vertex 7.23074 21.8063 8.90178
      vertex 7.23074 26.4813 8.90178
    endloop
  endfacet
  facet normal 1 0 0
    outer loop
      vertex 7.23074 26.4813 8.90178
      vertex 7.23074 22.0425 8.0201
      vertex 7.23074 26.4813 8.0201
    endloop
  endfacet
  facet normal 1 0 -0
    outer loop
      vertex 7.23074 22.0425 8.0201
      vertex 7.23074 26.4813 8.90178
      vertex 7.23074 21.8063 8.90178
    endloop
  endfacet
  facet normal 0.309017 0 0.951057
    outer loop
      vertex 7.23074 26.4813 8.0201
      vertex 8.06926 22.1155 7.74764
      vertex 8.06926 26.4813 7.74764
    endloop
  endfacet
  facet normal 0.309017 0 0.951057
    outer loop
      vertex 8.06926 22.1155 7.74764
      vertex 7.23074 26.4813 8.0201
      vertex 7.23074 22.0425 8.0201
    endloop
  endfacet
  facet normal -0.809017 0 0.587785
    outer loop
      vertex 8.06926 22.1155 7.74764
      vertex 8.5875 26.4813 8.46094
      vertex 8.06926 26.4813 7.74764
    endloop
  endfacet
  facet normal -0.809017 0 0.587785
    outer loop
      vertex 8.5875 26.4813 8.46094
      vertex 8.06926 22.1155 7.74764
      vertex 8.5875 21.9244 8.46094
    endloop
  endfacet
  facet normal 0 -0.258819 0.965926
    outer loop
      vertex 9.5 21.6894 9.33815
      vertex 8 10 6.20599
      vertex 9.5 10 6.20599
    endloop
  endfacet
  facet normal 0 -0.258819 0.965926
    outer loop
      vertex 8 10 6.20599
      vertex -8 10 6.20599
      vertex 8 8.99797 5.9375
    endloop
  endfacet
  facet normal 0 -0.258819 0.965926
    outer loop
      vertex 9.5 21.6894 9.33815
      vertex -8 10 6.20599
      vertex 8 10 6.20599
    endloop
  endfacet
  facet normal 0 -0.258819 0.965926
    outer loop
      vertex -9.5 21.6894 9.33815
      vertex -8 10 6.20599
      vertex 9.5 21.6894 9.33815
    endloop
  endfacet
  facet normal 0 -0.258819 0.965926
    outer loop
      vertex -8 10 6.20599
      vertex -9.5 21.6894 9.33815
      vertex -9.5 10 6.20599
    endloop
  endfacet
  facet normal 0 -0.258819 0.965926
    outer loop
      vertex 8 8.99797 5.9375
      vertex -8 10 6.20599
      vertex -8 8.99797 5.9375
    endloop
  endfacet
  facet normal 0 0.258819 -0.965926
    outer loop
      vertex -9.5 10 1.28843
      vertex 9.5 22.9188 4.75
      vertex 9.5 10 1.28843
    endloop
  endfacet
  facet normal 0 0.258819 -0.965926
    outer loop
      vertex 9.5 22.9188 4.75
      vertex -9.5 10 1.28843
      vertex -9.5 22.9188 4.75
    endloop
  endfacet
  facet normal 0 0.965923 0.25883
    outer loop
      vertex 9.5 21.7313 9.18181
      vertex -9.5 21.6894 9.33815
      vertex 9.5 21.6894 9.33815
    endloop
  endfacet
  facet normal 0 0.965923 0.25883
    outer loop
      vertex -9.5 21.6894 9.33815
      vertex 9.5 21.7313 9.18181
      vertex -9.5 21.7313 9.18181
    endloop
  endfacet
  facet normal 1.79988e-07 0.965926 0.258819
    outer loop
      vertex -7.0875 21.9244 8.46094
      vertex -8.44426 21.8063 8.90178
      vertex -7.60574 21.7333 9.17423
    endloop
  endfacet
  facet normal 5.8799e-07 0.965926 0.25882
    outer loop
      vertex -7.0875 21.9244 8.46094
      vertex -8.44426 22.0425 8.0201
      vertex -8.44426 21.8063 8.90178
    endloop
  endfacet
  facet normal 4.08002e-07 0.965925 0.258821
    outer loop
      vertex -8.44426 22.0425 8.0201
      vertex -7.0875 21.9244 8.46094
      vertex -7.60574 22.1155 7.74764
    endloop
  endfacet
  facet normal 1.79988e-07 0.965926 0.258819
    outer loop
      vertex 8.5875 21.9244 8.46094
      vertex 7.23074 21.8063 8.90178
      vertex 8.06926 21.7333 9.17423
    endloop
  endfacet
  facet normal 5.8799e-07 0.965926 0.25882
    outer loop
      vertex 8.5875 21.9244 8.46094
      vertex 7.23074 22.0425 8.0201
      vertex 7.23074 21.8063 8.90178
    endloop
  endfacet
  facet normal 4.08002e-07 0.965925 0.258821
    outer loop
      vertex 7.23074 22.0425 8.0201
      vertex 8.5875 21.9244 8.46094
      vertex 8.06926 22.1155 7.74764
    endloop
  endfacet
  facet normal -0.951056 -0.309017 0
    outer loop
      vertex 2 0 1
      vertex 1.61803 1.17557 5.9375
      vertex 1.61803 1.17557 1
    endloop
  endfacet
  facet normal -0.951056 -0.309017 0
    outer loop
      vertex 1.61803 1.17557 5.9375
      vertex 2 0 1
      vertex 2 0 5.9375
    endloop
  endfacet
  facet normal 0.951056 -0.309017 0
    outer loop
      vertex -2 0 5.9375
      vertex -1.61803 1.17557 1
      vertex -1.61803 1.17557 5.9375
    endloop
  endfacet
  facet normal 0.951056 -0.309017 0
    outer loop
      vertex -1.61803 1.17557 1
      vertex -2 0 5.9375
      vertex -2 0 1
    endloop
  endfacet
  facet normal 0 -1 0
    outer loop
      vertex -0.618033 1.90211 1
      vertex 0.618033 1.90211 5.9375
      vertex -0.618033 1.90211 5.9375
    endloop
  endfacet
  facet normal 0 -1 -0
    outer loop
      vertex 0.618033 1.90211 5.9375
      vertex -0.618033 1.90211 1
      vertex 0.618033 1.90211 1
    endloop
  endfacet
  facet normal -0.587785 -0.809017 0
    outer loop
      vertex 0.618033 1.90211 1
      vertex 1.61803 1.17557 5.9375
      vertex 0.618033 1.90211 5.9375
    endloop
  endfacet
  facet normal -0.587785 -0.809017 -0
    outer loop
      vertex 1.61803 1.17557 5.9375
      vertex 0.618033 1.90211 1
      vertex 1.61803 1.17557 1
    endloop
  endfacet
  facet normal 0.587785 -0.809017 0
    outer loop
      vertex -1.61803 1.17557 1
      vertex -0.618033 1.90211 5.9375
      vertex -1.61803 1.17557 5.9375
    endloop
  endfacet
  facet normal 0.587785 -0.809017 0
    outer loop
      vertex -0.618033 1.90211 5.9375
      vertex -1.61803 1.17557 1
      vertex -0.618033 1.90211 1
    endloop
  endfacet
  facet normal -0.951056 0.309017 0
    outer loop
      vertex 1.61803 -1.17557 1
      vertex 2 0 5.9375
      vertex 2 0 1
    endloop
  endfacet
  facet normal -0.951056 0.309017 0
    outer loop
      vertex 2 0 5.9375
      vertex 1.61803 -1.17557 1
      vertex 1.61803 -1.17557 5.9375
    endloop
  endfacet
  facet normal 0.951056 0.309017 0
    outer loop
      vertex -1.61803 -1.17557 5.9375
      vertex -2 0 1
      vertex -2 0 5.9375
    endloop
  endfacet
  facet normal 0.951056 0.309017 0
    outer loop
      vertex -2 0 1
      vertex -1.61803 -1.17557 5.9375
      vertex -1.61803 -1.17557 1
    endloop
  endfacet
  facet normal 0.587785 0.809017 -0
    outer loop
      vertex -0.618033 -1.90211 1
      vertex -1.61803 -1.17557 5.9375
      vertex -0.618033 -1.90211 5.9375
    endloop
  endfacet
  facet normal 0.587785 0.809017 0
    outer loop
      vertex -1.61803 -1.17557 5.9375
      vertex -0.618033 -1.90211 1
      vertex -1.61803 -1.17557 1
    endloop
  endfacet
  facet normal -0.587785 0.809017 0
    outer loop
      vertex 1.61803 -1.17557 1
      vertex 0.618033 -1.90211 5.9375
      vertex 1.61803 -1.17557 5.9375
    endloop
  endfacet
  facet normal -0.587785 0.809017 0
    outer loop
      vertex 0.618033 -1.90211 5.9375
      vertex 1.61803 -1.17557 1
      vertex 0.618033 -1.90211 1
    endloop
  endfacet
  facet normal 0 1 -0
    outer loop
      vertex 0.618033 -1.90211 1
      vertex -0.618033 -1.90211 5.9375
      vertex 0.618033 -1.90211 5.9375
    endloop
  endfacet
  facet normal 0 1 0
    outer loop
      vertex -0.618033 -1.90211 5.9375
      vertex 0.618033 -1.90211 1
      vertex -0.618033 -1.90211 1
    endloop
  endfacet
endsolid OpenSCAD_Model
